<mxfile host="app.diagrams.net" modified="2022-05-07T06:30:41.847Z" agent="5.0 (Windows)" etag="JqUDOQKUVM-n8RjJTvpU" version="18.0.1" type="github">
  <diagram id="prtHgNgQTEPvFCAcTncT" name="Page-1">
    <mxGraphModel dx="1038" dy="536" grid="1" gridSize="10" guides="1" tooltips="1" connect="1" arrows="1" fold="1" page="1" pageScale="1" pageWidth="827" pageHeight="1169" math="0" shadow="0">
      <root>
        <mxCell id="0" />
        <mxCell id="1" parent="0" />
        <mxCell id="dNxyNK7c78bLwvsdeMH5-11" value="IRFHGlue" style="swimlane;html=1;startSize=20;horizontal=1;containerType=tree;glass=0;" parent="1" vertex="1">
          <mxGeometry x="40" y="80" width="710" height="470" as="geometry" />
        </mxCell>
        <mxCell id="6XnXzuixtazqQvJY8x0j-5" value="Hardware" style="swimlane;startSize=23;" vertex="1" parent="dNxyNK7c78bLwvsdeMH5-11">
          <mxGeometry x="230" y="360" width="340" height="100" as="geometry" />
        </mxCell>
        <mxCell id="6XnXzuixtazqQvJY8x0j-6" value="Station" style="rounded=1;whiteSpace=wrap;html=1;" vertex="1" parent="6XnXzuixtazqQvJY8x0j-5">
          <mxGeometry x="240" y="40" width="90" height="40" as="geometry" />
        </mxCell>
        <mxCell id="6XnXzuixtazqQvJY8x0j-7" value="Machine" style="rounded=1;whiteSpace=wrap;html=1;" vertex="1" parent="6XnXzuixtazqQvJY8x0j-5">
          <mxGeometry x="130" y="40" width="90" height="40" as="geometry" />
        </mxCell>
        <mxCell id="6XnXzuixtazqQvJY8x0j-8" value="Conveyor" style="rounded=1;whiteSpace=wrap;html=1;" vertex="1" parent="6XnXzuixtazqQvJY8x0j-5">
          <mxGeometry x="10" y="40" width="90" height="40" as="geometry" />
        </mxCell>
        <mxCell id="6XnXzuixtazqQvJY8x0j-12" value="APMotorCard" style="rounded=1;whiteSpace=wrap;html=1;" vertex="1" parent="dNxyNK7c78bLwvsdeMH5-11">
          <mxGeometry x="10" y="380" width="120" height="60" as="geometry" />
        </mxCell>
        <mxCell id="6XnXzuixtazqQvJY8x0j-13" value="" style="endArrow=classic;html=1;rounded=0;" edge="1" parent="dNxyNK7c78bLwvsdeMH5-11">
          <mxGeometry relative="1" as="geometry">
            <mxPoint x="130" y="409.5" as="sourcePoint" />
            <mxPoint x="230" y="409.5" as="targetPoint" />
          </mxGeometry>
        </mxCell>
        <mxCell id="6XnXzuixtazqQvJY8x0j-14" value="Packaging" style="edgeLabel;resizable=0;html=1;align=center;verticalAlign=middle;" connectable="0" vertex="1" parent="6XnXzuixtazqQvJY8x0j-13">
          <mxGeometry relative="1" as="geometry" />
        </mxCell>
      </root>
    </mxGraphModel>
  </diagram>
</mxfile>
